0, 0, Header, 1, 2, 96
8, 0, Start_track
8, 0, Title_t, "Dynamic_Classical_Track8_4min_Eminor_90bpm"
8, 0, Tempo, 666667
8, 0, Time_signature, 4, 2, 24, 8
8, 192, Note_on_c, 9, 42, 85
8, 240, Note_off_c, 9, 42, 0
8, 288, Note_on_c, 9, 42, 90
8, 336, Note_off_c, 9, 42, 0
8, 384, Note_on_c, 9, 42, 95
8, 432, Note_off_c, 9, 42, 0
8, 480, Note_on_c, 9, 42, 90
8, 528, Note_off_c, 9, 42, 0
8, 576, Note_on_c, 9, 42, 85
8, 624, Note_off_c, 9, 42, 0
8, 672, Note_on_c, 9, 42, 90
8, 720, Note_off_c, 9, 42, 0
8, 768, Note_on_c, 9, 42, 95
8, 816, Note_off_c, 9, 42, 0
8, 864, Note_on_c, 9, 42, 90
8, 912, Note_off_c, 9, 42, 0
8, 960, Note_on_c, 9, 42, 85
8, 1008, Note_off_c, 9, 42, 0
8, 1056, Note_on_c, 9, 42, 90
8, 1104, Note_off_c, 9, 42, 0
8, 1152, Note_on_c, 9, 42, 95
8, 1200, Note_off_c, 9, 42, 0
8, 1248, Note_on_c, 9, 42, 90
8, 1296, Note_off_c, 9, 42, 0
8, 1344, Note_on_c, 9, 42, 85
8, 1392, Note_off_c, 9, 42, 0
8, 1440, Note_on_c, 9, 42, 90
8, 1488, Note_off_c, 9, 42, 0
8, 1536, Note_on_c, 9, 42, 95
8, 1584, Note_off_c, 9, 42, 0
8, 1632, Note_on_c, 9, 42, 90
8, 1680, Note_off_c, 9, 42, 0
8, 1728, Note_on_c, 9, 42, 85
8, 1776, Note_off_c, 9, 42, 0
8, 1824, Note_on_c, 9, 42, 90
8, 1872, Note_off_c, 9, 42, 0
8, 1920, Note_on_c, 9, 42, 95
8, 1968, Note_off_c, 9, 42, 0
8, 2016, Note_on_c, 9, 42, 90
8, 2064, Note_off_c, 9, 42, 0
8, 2304, Note_on_c, 9, 42, 85
8, 2352, Note_off_c, 9, 42, 0
8, 2400, Note_on_c, 9, 42, 90
8, 2448, Note_off_c, 9, 42, 0
8, 2496, Note_on_c, 9, 42, 95
8, 2544, Note_off_c, 9, 42, 0
8, 2592, Note_on_c, 9, 42, 90
8, 2640, Note_off_c, 9, 42, 0
8, 2688, Note_on_c, 9, 42, 85
8, 2736, Note_off_c, 9, 42, 0
8, 2784, Note_on_c, 9, 42, 90
8, 2832, Note_off_c, 9, 42, 0
8, 2880, Note_on_c, 9, 42, 95
8, 2928, Note_off_c, 9, 42, 0
8, 2976, Note_on_c, 9, 42, 90
8, 3024, Note_off_c, 9, 42, 0
8, 3072, Note_on_c, 9, 42, 85
8, 3120, Note_off_c, 9, 42, 0
8, 3168, Note_on_c, 9, 42, 90
8, 3216, Note_off_c, 9, 42, 0
8, 3264, Note_on_c, 9, 42, 95
8, 3312, Note_off_c, 9, 42, 0
8, 3360, Note_on_c, 9, 42, 90
8, 3408, Note_off_c, 9, 42, 0
8, 3456, Note_on_c, 9, 42, 85
8, 3504, Note_off_c, 9, 42, 0
8, 3552, Note_on_c, 9, 42, 90
8, 3600, Note_off_c, 9, 42, 0
8, 3648, Note_on_c, 9, 42, 95
8, 3696, Note_off_c, 9, 42, 0
8, 3744, Note_on_c, 9, 42, 90
8, 3792, Note_off_c, 9, 42, 0
8, 3840, Note_on_c, 9, 42, 85
8, 3888, Note_off_c, 9, 42, 0
8, 3936, Note_on_c, 9, 42, 90
8, 3984, Note_off_c, 9, 42, 0
8, 4032, Note_on_c, 9, 42, 95
8, 4080, Note_off_c, 9, 42, 0
8, 4128, Note_on_c, 9, 42, 90
8, 4176, Note_off_c, 9, 42, 0
8, 4224, Note_on_c, 9, 42, 85
8, 4272, Note_off_c, 9, 42, 0
8, 4320, Note_on_c, 9, 42, 90
8, 4368, Note_off_c, 9, 42, 0
8, 4416, Note_on_c, 9, 42, 95
8, 4464, Note_off_c, 9, 42, 0
8, 4512, Note_on_c, 9, 42, 90
8, 4560, Note_off_c, 9, 42, 0
8, 4608, Note_on_c, 9, 42, 85
8, 4656, Note_off_c, 9, 42, 0
8, 4704, Note_on_c, 9, 42, 90
8, 4752, Note_off_c, 9, 42, 0
8, 4800, Note_on_c, 9, 42, 95
8, 4848, Note_off_c, 9, 42, 0
8, 4896, Note_on_c, 9, 42, 90
8, 4944, Note_off_c, 9, 42, 0
8, 4992, Note_on_c, 9, 42, 85
8, 5040, Note_off_c, 9, 42, 0
8, 5088, Note_on_c, 9, 42, 90
8, 5136, Note_off_c, 9, 42, 0
8, 5184, Note_on_c, 9, 42, 95
8, 5232, Note_off_c, 9, 42, 0
8, 5280, Note_on_c, 9, 42, 90
8, 5328, Note_off_c, 9, 42, 0
8, 5376, Note_on_c, 9, 42, 85
8, 5424, Note_off_c, 9, 42, 0
8, 5472, Note_on_c, 9, 42, 90
8, 5520, Note_off_c, 9, 42, 0
8, 5568, Note_on_c, 9, 42, 95
8, 5616, Note_off_c, 9, 42, 0
8, 5664, Note_on_c, 9, 42, 90
8, 5712, Note_off_c, 9, 42, 0
8, 5760, Note_on_c, 9, 42, 85
8, 5808, Note_off_c, 9, 42, 0
8, 5856, Note_on_c, 9, 42, 90
8, 5904, Note_off_c, 9, 42, 0
8, 5952, Note_on_c, 9, 42, 95
8, 6000, Note_off_c, 9, 42, 0
8, 6048, Note_on_c, 9, 42, 90
8, 6096, Note_off_c, 9, 42, 0
8, 6144, Note_on_c, 9, 42, 85
8, 6192, Note_off_c, 9, 42, 0
8, 6240, Note_on_c, 9, 42, 90
8, 6288, Note_off_c, 9, 42, 0
8, 6336, Note_on_c, 9, 42, 95
8, 6384, Note_off_c, 9, 42, 0
8, 6432, Note_on_c, 9, 42, 90
8, 6480, Note_off_c, 9, 42, 0
8, 6528, Note_on_c, 9, 42, 85
8, 6576, Note_off_c, 9, 42, 0
8, 6624, Note_on_c, 9, 42, 90
8, 6672, Note_off_c, 9, 42, 0
8, 6720, Note_on_c, 9, 42, 95
8, 6768, Note_off_c, 9, 42, 0
8, 6816, Note_on_c, 9, 42, 90
8, 6864, Note_off_c, 9, 42, 0
8, 6912, Note_on_c, 9, 42, 85
8, 6960, Note_off_c, 9, 42, 0
8, 7008, Note_on_c, 9, 42, 90
8, 7056, Note_off_c, 9, 42, 0
8, 7296, Note_on_c, 9, 42, 95
8, 7344, Note_off_c, 9, 42, 0
8, 7392, Note_on_c, 9, 42, 90
8, 7440, Note_off_c, 9, 42, 0
8, 7488, Note_on_c, 9, 42, 85
8, 7536, Note_off_c, 9, 42, 0
8, 7584, Note_on_c, 9, 42, 90
8, 7632, Note_off_c, 9, 42, 0
8, 7680, Note_on_c, 9, 42, 95
8, 7728, Note_off_c, 9, 42, 0
8, 7776, Note_on_c, 9, 42, 90
8, 7824, Note_off_c, 9, 42, 0
8, 7872, Note_on_c, 9, 42, 85
8, 7920, Note_off_c, 9, 42, 0
8, 7968, Note_on_c, 9, 42, 90
8, 8016, Note_off_c, 9, 42, 0
8, 8064, Note_on_c, 9, 42, 95
8, 8112, Note_off_c, 9, 42, 0
8, 8160, Note_on_c, 9, 42, 90
8, 8208, Note_off_c, 9, 42, 0
8, 8256, Note_on_c, 9, 42, 85
8, 8304, Note_off_c, 9, 42, 0
8, 8352, Note_on_c, 9, 42, 90
8, 8400, Note_off_c, 9, 42, 0
8, 8448, Note_on_c, 9, 42, 95
8, 8496, Note_off_c, 9, 42, 0
8, 8544, Note_on_c, 9, 42, 90
8, 8592, Note_off_c, 9, 42, 0
8, 8640, Note_on_c, 9, 42, 85
8, 8688, Note_off_c, 9, 42, 0
8, 8736, Note_on_c, 9, 42, 90
8, 8784, Note_off_c, 9, 42, 0
8, 8832, Note_on_c, 9, 42, 95
8, 8880, Note_off_c, 9, 42, 0
8, 8928, Note_on_c, 9, 42, 90
8, 8976, Note_off_c, 9, 42, 0
8, 9024, Note_on_c, 9, 42, 85
8, 9072, Note_off_c, 9, 42, 0
8, 9120, Note_on_c, 9, 42, 90
8, 9168, Note_off_c, 9, 42, 0
8, 9216, Note_on_c, 9, 42, 95
8, 9264, Note_off_c, 9, 42, 0
8, 9312, Note_on_c, 9, 42, 90
8, 9360, Note_off_c, 9, 42, 0
8, 9408, Note_on_c, 9, 42, 85
8, 9456, Note_off_c, 9, 42, 0
8, 9504, Note_on_c, 9, 42, 90
8, 9552, Note_off_c, 9, 42, 0
8, 9600, Note_on_c, 9, 42, 95
8, 9648, Note_off_c, 9, 42, 0
8, 9696, Note_on_c, 9, 42, 90
8, 9744, Note_off_c, 9, 42, 0
8, 9792, Note_on_c, 9, 42, 85
8, 9840, Note_off_c, 9, 42, 0
8, 9888, Note_on_c, 9, 42, 90
8, 9936, Note_off_c, 9, 42, 0
8, 9984, Note_on_c, 9, 42, 95
8, 10032, Note_off_c, 9, 42, 0
8, 10080, Note_on_c, 9, 42, 90
8, 10128, Note_off_c, 9, 42, 0
8, 10176, Note_on_c, 9, 42, 85
8, 10224, Note_off_c, 9, 42, 0
8, 10272, Note_on_c, 9, 42, 90
8, 10320, Note_off_c, 9, 42, 0
8, 34560, End_track
0, 34560, End_of_file