4D546864000000060000000101E04D54726B0000022A00FF03114C6F77204672657120547261636B2033302D31353020487A00FF5103070802009024647890240001901F5078902400816890265AF09026008348902464789024008348901F508348901F00834890246478902400816890265AF0902600834890246478902400834890275A789027008168902B5A78902B00834890265AF09026008348902464789024000FF2F00